<svg width="1200" height="630" viewBox="0 0 1200 630" fill="none" xmlns="http://www.w3.org/2000/svg">
  <defs>
    <radialGradient id="g" cx="74%" cy="22%" r="78%">
      <stop stop-color="#FBBF24" stop-opacity="0.34"/>
      <stop offset="0.42" stop-color="#7C3AED" stop-opacity="0.18"/>
      <stop offset="1" stop-color="#0B1120" stop-opacity="0"/>
    </radialGradient>
    <linearGradient id="bar" x1="0" y1="0" x2="0" y2="1">
      <stop stop-color="#FBBF24"/>
      <stop offset="1" stop-color="#F59E0B"/>
    </linearGradient>
    <linearGradient id="bar2" x1="0" y1="0" x2="0" y2="1">
      <stop stop-color="#A78BFA"/>
      <stop offset="1" stop-color="#7C3AED"/>
    </linearGradient>
    <linearGradient id="title" x1="0" x2="1">
      <stop stop-color="#FBBF24"/>
      <stop offset="0.6" stop-color="#FCD34D"/>
      <stop offset="1" stop-color="#A78BFA"/>
    </linearGradient>
  </defs>
  <rect width="1200" height="630" fill="#0B1120"/>
  <rect width="1200" height="630" fill="url(#g)"/>
  <g opacity="0.10" stroke="#C7D2FE">
    <path d="M0 110H1200M0 220H1200M0 330H1200M0 440H1200M0 550H1200"/>
    <path d="M150 0V630M300 0V630M450 0V630M600 0V630M750 0V630M900 0V630M1050 0V630"/>
  </g>
  <rect x="60" y="56" width="1080" height="518" rx="40" fill="#0F172A" fill-opacity="0.55" stroke="#FBBF24" stroke-opacity="0.22"/>

  <!-- podium bars -->
  <g transform="translate(792,470)">
    <rect x="120" y="-180" width="84" height="180" rx="10" fill="url(#bar)"/>
    <rect x="24" y="-128" width="84" height="128" rx="10" fill="url(#bar2)"/>
    <rect x="216" y="-96" width="84" height="96" rx="10" fill="url(#bar2)" opacity="0.78"/>
    <text x="162" y="-198" fill="#FBBF24" font-family="Menlo, monospace" font-size="30" font-weight="800" text-anchor="middle">1</text>
    <text x="66" y="-146" fill="#A78BFA" font-family="Menlo, monospace" font-size="26" font-weight="800" text-anchor="middle">2</text>
    <text x="258" y="-114" fill="#A78BFA" font-family="Menlo, monospace" font-size="26" font-weight="800" text-anchor="middle">3</text>
  </g>

  <!-- trophy glyph -->
  <g transform="translate(116,116)">
    <path d="M14 4h44v12c0 16-9 26-22 26S14 32 14 16V4Z" fill="none" stroke="#FBBF24" stroke-width="4"/>
    <path d="M14 8H2v6c0 8 6 13 13 13" fill="none" stroke="#FBBF24" stroke-width="4"/>
    <path d="M58 8h12v6c0 8-6 13-13 13" fill="none" stroke="#FBBF24" stroke-width="4"/>
    <rect x="30" y="42" width="12" height="14" fill="#FBBF24"/>
    <rect x="20" y="56" width="32" height="8" rx="3" fill="#FBBF24"/>
  </g>

  <text x="198" y="156" fill="#FBBF24" font-family="Menlo, monospace" font-size="23" font-weight="800" letter-spacing="4">MCP LEADERBOARD · DELX</text>
  <text x="116" y="298" fill="url(#title)" font-family="Georgia, serif" font-size="72" font-weight="700">Agent-readiness,</text>
  <text x="116" y="382" fill="#E8EEFC" font-family="Georgia, serif" font-size="72" font-weight="700">ranked.</text>
  <text x="116" y="466" fill="#B9C4DC" font-family="Avenir, Helvetica, sans-serif" font-size="27">Every MCP server in the registry, booted and scored 0–100.</text>
  <text x="116" y="506" fill="#7C8AA6" font-family="Menlo, monospace" font-size="21">auto-refreshed weekly · nothing hand-edited</text>
</svg>
